ply
format ascii 1.0
comment Created in Blender version 4.0.0
element vertex 555
property float x
property float y
property float z
property float s
property float t
element face 500
property list uchar uint vertex_indices
end_header
0.46875 -0.7578125 0.2421875 0.898516 0.615168
0.4375 -0.765625 0.1640625 0.889924 0.593688
0.5 -0.6875 0.09375 0.917217 0.563713
0.5625 -0.671875 0.2421875 0.938774 0.614911
-0.5 -0.6875 0.09375 0.816475 0.815667
-0.4375 -0.765625 0.1640625 0.842653 0.844479
-0.46875 -0.7578125 0.2421875 0.834061 0.86596
-0.5625 -0.671875 0.2421875 0.795398 0.865726
0.546875 -0.578125 0.0546875 0.951453 0.532635
0.625 -0.5625 0.2421875 0.985674 0.614766
-0.546875 -0.578125 0.0546875 0.781112 0.783437
-0.625 -0.5625 0.2421875 0.746891 0.865568
0.3515625 -0.71875 0.03125 0.866019 0.542156
0.3515625 -0.6171875 -0.0234375 0.865901 0.498414
-0.3515625 -0.6171875 -0.0234375 0.866664 0.749216
-0.3515625 -0.71875 0.03125 0.866533 0.79459
0.3515625 -0.78125 0.1328125 0.866296 0.585096
-0.3515625 -0.78125 0.1328125 0.866281 0.835888
0.2734375 -0.796875 0.1640625 0.844815 0.593688
0.203125 -0.7421875 0.09375 0.814821 0.563713
-0.203125 -0.7421875 0.09375 0.916591 0.815667
-0.2734375 -0.796875 0.1640625 0.887762 0.844479
0.15625 -0.6484375 0.0546875 0.780348 0.532635
-0.15625 -0.6484375 0.0546875 0.952217 0.783437
0.140625 -0.7421875 0.2421875 0.793264 0.614911
0.078125 -0.65625 0.2421875 0.746127 0.614766
-0.078125 -0.65625 0.2421875 0.986437 0.865568
-0.140625 -0.7421875 0.2421875 0.937668 0.865726
0.2421875 -0.796875 0.2421875 0.836223 0.615168
-0.2421875 -0.796875 0.2421875 0.896353 0.86596
0.2734375 -0.796875 0.328125 0.844815 0.638796
0.203125 -0.7421875 0.390625 0.814821 0.666108
-0.203125 -0.7421875 0.390625 0.916591 0.915784
-0.2734375 -0.796875 0.328125 0.887762 0.889588
0.15625 -0.6484375 0.4375 0.780348 0.700318
-0.15625 -0.6484375 0.4375 0.952217 0.95112
0.3515625 -0.71875 0.453125 0.866019 0.687665
0.3515625 -0.6171875 0.515625 0.865901 0.734539
-0.3515625 -0.6171875 0.515625 0.866664 0.985341
-0.3515625 -0.71875 0.453125 0.866533 0.936861
0.3515625 -0.78125 0.359375 0.866296 0.647388
-0.3515625 -0.78125 0.359375 0.866281 0.89818
0.4375 -0.765625 0.328125 0.889924 0.638796
0.5 -0.6875 0.390625 0.917217 0.666108
-0.5 -0.6875 0.390625 0.816475 0.915784
-0.4375 -0.765625 0.328125 0.842653 0.889588
0.546875 -0.578125 0.4375 0.951453 0.700318
-0.546875 -0.578125 0.4375 0.781112 0.95112
0.4453125 -0.78125 0.3359375 0.884573 0.633599
0.4765625 -0.7734375 0.2421875 0.89068 0.615278
-0.4453125 -0.78125 0.3359375 0.847994 0.8844
-0.4765625 -0.7734375 0.2421875 0.841887 0.866078
0.3515625 -0.8046875 0.375 0.866252 0.641233
-0.3515625 -0.8046875 0.375 0.866315 0.892033
0.265625 -0.8203125 0.3359375 0.849457 0.633599
-0.265625 -0.8203125 0.3359375 0.883109 0.8844
0.2265625 -0.8203125 0.2421875 0.841823 0.615278
-0.2265625 -0.8203125 0.2421875 0.890743 0.866078
0.265625 -0.8203125 0.15625 0.849457 0.598483
-0.265625 -0.8203125 0.15625 0.883109 0.849284
0.3515625 -0.8046875 0.1171875 0.866252 0.590849
-0.3515625 -0.8046875 0.1171875 0.866315 0.84165
0.4453125 -0.78125 0.15625 0.884573 0.598483
-0.4453125 -0.78125 0.15625 0.847994 0.849284
0.3515625 -0.828125 0.2421875 0.866252 0.615278
-0.3515625 -0.828125 0.2421875 0.866314 0.866078
0.1796875 -0.5546875 -0.96875 0.519175 0.060448
0.1640625 -0.6328125 -0.9296875 0.515511 0.068449
0 -0.640625 -0.9453125 0.499236 0.064527
0 -0.578125 -0.984375 0.499226 0.054411
-0.1640625 -0.6328125 -0.9296875 0.482972 0.06849
-0.1796875 -0.5546875 -0.96875 0.479289 0.060503
0.328125 -0.5234375 -0.9453125 0.528933 0.064984
0.234375 -0.6328125 -0.9140625 0.521101 0.070625
-0.234375 -0.6328125 -0.9140625 0.477388 0.070678
-0.328125 -0.5234375 -0.9453125 0.469543 0.065062
0.3671875 -0.53125 -0.890625 0.531361 0.067741
0.265625 -0.6640625 -0.8203125 0.524816 0.079366
-0.265625 -0.6640625 -0.8203125 0.473699 0.079422
-0.3671875 -0.53125 -0.890625 0.467122 0.067822
0.3515625 -0.5703125 -0.6953125 0.54323 0.082916
0.25 -0.6875 -0.703125 0.527778 0.09104
-0.25 -0.6875 -0.703125 0.470772 0.091098
-0.3515625 -0.5703125 -0.6953125 0.455305 0.083023
0.3125 -0.5703125 -0.4375 0.564295 0.115333
0.2109375 -0.7109375 -0.4453125 0.536201 0.127706
-0.2109375 -0.7109375 -0.4453125 0.462464 0.127779
-0.3125 -0.5703125 -0.4375 0.434353 0.115495
0.203125 -0.5625 -0.1875 0.585741 0.171832
0.4375 -0.53125 -0.140625 0.62557 0.207851
0.3984375 -0.671875 -0.046875 0.59947 0.238064
0.125 -0.8125 -0.1015625 0.534775 0.215506
-0.3984375 -0.671875 -0.046875 0.39953 0.238288
-0.4375 -0.53125 -0.140625 0.373395 0.208159
-0.203125 -0.5625 -0.1875 0.413084 0.172042
-0.125 -0.8125 -0.1015625 0.464115 0.215568
0.6328125 -0.5390625 -0.0390625 0.649992 0.239957
0.6171875 -0.625 0.0546875 0.636068 0.260938
-0.6171875 -0.625 0.0546875 0.363038 0.261221
-0.6328125 -0.5390625 -0.0390625 0.349092 0.240294
0.828125 -0.4453125 0.1484375 0.688725 0.268431
0.7265625 -0.6015625 0.203125 0.655084 0.28413
-0.7265625 -0.6015625 0.203125 0.344104 0.284413
-0.828125 -0.4453125 0.1484375 0.310499 0.268805
0.859375 -0.59375 0.4296875 0.683826 0.317538
0.7421875 -0.65625 0.375 0.658753 0.312921
-0.7421875 -0.65625 0.375 0.340493 0.313152
-0.859375 -0.59375 0.4296875 0.315483 0.317795
0.7109375 -0.625 0.484375 0.670653 0.334491
0.6875 -0.7265625 0.4140625 0.648344 0.322238
-0.6875 -0.7265625 0.4140625 0.350893 0.322437
-0.7109375 -0.625 0.484375 0.328643 0.334694
0.4921875 -0.6875 0.6015625 0.636036 0.370629
0.4375 -0.796875 0.546875 0.612842 0.353
-0.4375 -0.796875 0.546875 0.386364 0.353108
-0.4921875 -0.6875 0.6015625 0.363225 0.370732
0.3203125 -0.734375 0.7578125 0.601484 0.395542
0.3125 -0.8359375 0.640625 0.593375 0.371207
-0.3125 -0.8359375 0.640625 0.405822 0.371277
-0.3203125 -0.734375 0.7578125 0.397739 0.395588
0.15625 -0.7578125 0.71875 0.580245 0.398434
0.203125 -0.8515625 0.6171875 0.576532 0.373285
-0.203125 -0.8515625 0.6171875 0.422649 0.373341
-0.15625 -0.7578125 0.71875 0.418956 0.398468
0.0625 -0.75 0.4921875 0.531177 0.387347
0.1015625 -0.84375 0.4296875 0.538956 0.354297
-0.1015625 -0.84375 0.4296875 0.460183 0.354339
-0.0625 -0.75 0.4921875 0.467984 0.387365
0 -0.7421875 0.4296875 0.499576 0.38286
0 -0.8203125 0.3515625 0.499559 0.340417
0.1640625 -0.7734375 0.4140625 0.558263 0.334249
0.25 -0.7578125 0.46875 0.578201 0.33555
-0.25 -0.7578125 0.46875 0.420943 0.335646
-0.1640625 -0.7734375 0.4140625 0.440865 0.334326
0.328125 -0.7421875 0.4765625 0.591245 0.332772
-0.328125 -0.7421875 0.4765625 0.40791 0.332885
0.4296875 -0.71875 0.4375 0.605328 0.325379
-0.4296875 -0.71875 0.4375 0.393837 0.325516
0.6015625 -0.6640625 0.375 0.627435 0.311447
-0.6015625 -0.6640625 0.375 0.371749 0.311636
0.640625 -0.6484375 0.296875 0.63473 0.300287
-0.640625 -0.6484375 0.296875 0.364449 0.300507
0.625 -0.6484375 0.1875 0.630627 0.283646
-0.625 -0.6484375 0.1875 0.368516 0.283889
0.4921875 -0.671875 0.0625 0.610403 0.264181
-0.4921875 -0.671875 0.0625 0.388669 0.264411
0.375 -0.703125 0.015625 0.591398 0.2547
-0.375 -0.703125 0.015625 0.407628 0.254897
0.203125 -0.7421875 0.09375 0.55869 0.267603
-0.203125 -0.7421875 0.09375 0.440331 0.267717
0.1640625 -0.75 0.140625 0.549915 0.277739
0 -0.7265625 0.046875 0.499486 0.252445
-0.1640625 -0.75 0.140625 0.449122 0.277832
0.125 -0.765625 0.3046875 0.543096 0.314455
-0.125 -0.765625 0.3046875 0.455999 0.314523
0 -0.765625 0.2109375 0.499529 0.295691
0.1328125 -0.7578125 0.2109375 0.542701 0.293295
-0.1328125 -0.7578125 0.2109375 0.456363 0.293371
0.0625 -0.6953125 -0.8828125 0.505317 0.075368
0 -0.6875 -0.890625 0.499246 0.073497
-0.0625 -0.6953125 -0.8828125 0.493181 0.075382
0.1171875 -0.7109375 -0.8359375 0.510294 0.080611
-0.1171875 -0.7109375 -0.8359375 0.488218 0.080633
0.109375 -0.734375 -0.71875 0.510719 0.09344
-0.109375 -0.734375 -0.71875 0.487828 0.093457
0.078125 -0.75 -0.4453125 0.512928 0.133399
0.1171875 -0.734375 -0.6875 0.512434 0.097171
-0.1171875 -0.734375 -0.6875 0.486126 0.097191
-0.078125 -0.75 -0.4453125 0.485743 0.133422
0.0859375 -0.7421875 -0.2890625 0.518981 0.164589
0 -0.7421875 -0.328125 0.499367 0.157864
0 -0.75 -0.4453125 0.499336 0.134352
-0.0859375 -0.7421875 -0.2890625 0.479774 0.164615
0 -0.734375 -0.6796875 0.499284 0.100063
0 -0.734375 -0.765625 0.499269 0.091346
0.125 -0.75 -0.2265625 0.529057 0.180195
0.1328125 -0.796875 -0.2265625 0.520697 0.181536
0.09375 -0.78125 -0.2734375 0.516438 0.172335
-0.09375 -0.78125 -0.2734375 0.482334 0.172353
-0.1328125 -0.796875 -0.2265625 0.478099 0.18156
-0.125 -0.75 -0.2265625 0.469742 0.180239
0.1015625 -0.7421875 -0.1484375 0.522516 0.198783
0.109375 -0.78125 -0.1328125 0.517786 0.194706
-0.109375 -0.78125 -0.1328125 0.481043 0.194728
-0.1015625 -0.7421875 -0.1484375 0.476327 0.198817
0 -0.7421875 -0.140625 0.499425 0.203867
0.0390625 -0.78125 -0.125 0.507044 0.197287
-0.0390625 -0.78125 -0.125 0.491789 0.197295
0 -0.75 -0.1953125 0.499416 0.197278
0 -0.796875 -0.1875 0.499409 0.192167
0 -0.78125 -0.3203125 0.499375 0.16517
0.078125 -0.8046875 -0.25 0.512319 0.176937
0 -0.8046875 -0.2890625 0.499383 0.171718
-0.078125 -0.8046875 -0.25 0.486462 0.176949
0 -0.828125 -0.203125 0.499401 0.186182
0.046875 -0.8125 -0.1484375 0.507638 0.192399
-0.046875 -0.8125 -0.1484375 0.491182 0.192407
0.09375 -0.8125 -0.15625 0.514048 0.190694
-0.09375 -0.8125 -0.15625 0.484768 0.190709
0.109375 -0.828125 -0.2265625 0.515702 0.181858
-0.109375 -0.828125 -0.2265625 0.483092 0.181873
0.1640625 -0.7109375 -0.2421875 0.542999 0.172734
-0.1640625 -0.7109375 -0.2421875 0.455791 0.172814
0.1796875 -0.7109375 -0.3125 0.540067 0.154824
-0.1796875 -0.7109375 -0.3125 0.458673 0.154899
0.2578125 -0.5546875 -0.3125 0.577388 0.138981
-0.2578125 -0.5546875 -0.3125 0.421339 0.139176
0.234375 -0.5546875 -0.25 0.582019 0.153952
-0.234375 -0.5546875 -0.25 0.416755 0.154155
0 -0.71875 -0.7734375 0.499267 0.089977
0.09375 -0.7265625 -0.7421875 0.508449 0.090711
-0.09375 -0.7265625 -0.7421875 0.490089 0.090724
0.09375 -0.7109375 -0.8203125 0.508228 0.082219
-0.09375 -0.7109375 -0.8203125 0.490287 0.082236
0.046875 -0.6875 -0.8671875 0.503697 0.077074
-0.046875 -0.6875 -0.8671875 0.494804 0.077083
0 -0.6875 -0.875 0.499248 0.075473
0.046875 -0.6328125 -0.8515625 0.501954 0.080835
0 -0.6328125 -0.859375 0.499254 0.08032
-0.046875 -0.6328125 -0.8515625 0.496555 0.08084
0.09375 -0.640625 -0.8125 0.504281 0.083193
-0.09375 -0.640625 -0.8125 0.494235 0.083202
0.09375 -0.6640625 -0.75 0.505348 0.086781
-0.09375 -0.6640625 -0.75 0.493178 0.086791
0 -0.65625 -0.78125 0.499261 0.085637
0.1875 -0.7734375 0.15625 0.561415 0.284224
0.171875 -0.78125 0.21875 0.558262 0.29478
-0.1875 -0.7734375 0.15625 0.437639 0.284338
-0.171875 -0.78125 0.21875 0.44081 0.294882
0.1796875 -0.78125 0.296875 0.562274 0.30705
-0.1796875 -0.78125 0.296875 0.43682 0.307151
0.2109375 -0.78125 0.375 0.569573 0.318594
-0.2109375 -0.78125 0.375 0.429542 0.318697
0.2265625 -0.78125 0.109375 0.56829 0.278113
-0.2265625 -0.78125 0.109375 0.430757 0.278245
0.375 -0.7421875 0.0625 0.58897 0.271589
-0.375 -0.7421875 0.0625 0.410086 0.271772
0.4765625 -0.71875 0.1015625 0.601274 0.276977
-0.4765625 -0.71875 0.1015625 0.39781 0.27718
0.578125 -0.6796875 0.1953125 0.616235 0.286959
-0.578125 -0.6796875 0.1953125 0.38289 0.287175
0.5859375 -0.6875 0.2890625 0.617221 0.299
-0.5859375 -0.6875 0.2890625 0.381926 0.299197
0.5625 -0.6953125 0.3515625 0.615028 0.307259
-0.5625 -0.6953125 0.3515625 0.384129 0.307438
0.421875 -0.7734375 0.3984375 0.597564 0.313582
-0.421875 -0.7734375 0.3984375 0.401576 0.313725
0.3359375 -0.7578125 0.4296875 0.589965 0.319671
-0.3359375 -0.7578125 0.4296875 0.409172 0.319797
0.2734375 -0.7734375 0.421875 0.581259 0.320877
-0.2734375 -0.7734375 0.421875 0.41787 0.320991
0.234375 -0.7578125 0.359375 0.577724 0.309274
0.28125 -0.765625 0.3984375 0.583117 0.312767
-0.234375 -0.7578125 0.359375 0.421385 0.309394
-0.28125 -0.765625 0.3984375 0.416002 0.312892
0.3359375 -0.75 0.40625 0.588782 0.312203
-0.3359375 -0.75 0.40625 0.410344 0.312336
0.4140625 -0.75 0.390625 0.595478 0.309103
-0.4140625 -0.75 0.390625 0.403653 0.309249
0.53125 -0.6796875 0.3359375 0.605147 0.302344
-0.53125 -0.6796875 0.3359375 0.393986 0.302517
0.5546875 -0.671875 0.28125 0.606862 0.297335
-0.5546875 -0.671875 0.28125 0.392265 0.29752
0.546875 -0.671875 0.2109375 0.6061 0.291021
-0.546875 -0.671875 0.2109375 0.393015 0.291216
0.4609375 -0.703125 0.1171875 0.597364 0.282892
-0.4609375 -0.703125 0.1171875 0.401725 0.283083
0.375 -0.7265625 0.0859375 0.588939 0.279989
-0.375 -0.7265625 0.0859375 0.410134 0.280167
0.2421875 -0.7578125 0.125 0.575416 0.28448
-0.2421875 -0.7578125 0.125 0.423648 0.284624
0.203125 -0.75 0.171875 0.5719 0.289783
-0.203125 -0.75 0.171875 0.427169 0.289915
0.1953125 -0.7578125 0.296875 0.572399 0.303223
-0.1953125 -0.7578125 0.296875 0.426693 0.303342
0.1953125 -0.75 0.2265625 0.571526 0.295591
-0.1953125 -0.75 0.2265625 0.427553 0.295716
0.109375 -0.609375 0.4609375 0.52882 0.428638
0 -0.6015625 0.40625 0.499582 0.428449
-0.109375 -0.609375 0.4609375 0.470353 0.428636
0.1953125 -0.6171875 0.6640625 0.583835 0.428591
-0.1953125 -0.6171875 0.6640625 0.415384 0.428598
0.3359375 -0.59375 0.6875 0.621564 0.417863
-0.3359375 -0.59375 0.6875 0.377699 0.417889
0.484375 -0.5546875 0.5546875 0.665541 0.388861
-0.484375 -0.5546875 0.5546875 0.333786 0.388954
0.6796875 -0.4921875 0.453125 0.700852 0.344252
-0.6796875 -0.4921875 0.453125 0.298519 0.344467
0.796875 -0.4609375 0.40625 0.711534 0.315224
-0.796875 -0.4609375 0.40625 0.287837 0.315527
0.7734375 -0.375 0.1640625 0.703543 0.259804
-0.7734375 -0.375 0.1640625 0.295695 0.260225
0.6015625 -0.4140625 0 0.672036 0.224472
-0.6015625 -0.4140625 0 0.327053 0.22488
0.4375 -0.46875 -0.09375 0.639461 0.198488
-0.4375 -0.46875 -0.09375 0.359503 0.198841
0 -0.3203125 -0.5703125 0.601923 0.02302
0 -0.28125 -0.484375 0.623531 0.028944
0.1796875 -0.2578125 -0.4140625 0.634365 0.081724
0.125 -0.359375 -0.5390625 0.597102 0.056491
-0.1796875 -0.2578125 -0.4140625 0.364247 0.082198
0 -0.28125 -0.484375 0.374872 0.029461
0 -0.3203125 -0.5703125 0.396447 0.023452
-0.125 -0.359375 -0.5390625 0.401383 0.056841
0 -0.34375 -0.8046875 0.545071 0.009261
0.140625 -0.3671875 -0.7578125 0.554761 0.040719
0 -0.34375 -0.8046875 0.453219 0.009442
-0.140625 -0.3671875 -0.7578125 0.443646 0.040906
0 -0.4609375 -0.9765625 0.499203 0.033223
0.1640625 -0.4375 -0.9453125 0.525595 0.049432
-0.1640625 -0.4375 -0.9453125 0.472841 0.049514
0.328125 -0.3984375 -0.9140625 0.53569 0.060692
-0.328125 -0.3984375 -0.9140625 0.462778 0.060794
0.2890625 -0.3828125 -0.7109375 0.556987 0.064968
-0.2890625 -0.3828125 -0.7109375 0.441501 0.065137
0.25 -0.390625 -0.5 0.586699 0.084908
-0.25 -0.390625 -0.5 0.411873 0.085177
0.234375 -0.40625 -0.3515625 0.605919 0.113619
-0.234375 -0.40625 -0.3515625 0.392761 0.11394
0.21875 -0.4296875 -0.28125 0.61141 0.133352
0.2109375 -0.46875 -0.2265625 0.604255 0.15122
-0.2109375 -0.46875 -0.2265625 0.394533 0.151503
-0.21875 -0.4296875 -0.28125 0.387337 0.133675
0.203125 -0.5 -0.171875 0.599523 0.162726
-0.203125 -0.5 -0.171875 0.399292 0.162985
0 0.828125 0.0703125 0.921561 0.062683
0.3359375 0.6640625 0.0546875 0.858848 0.11679
0.34375 0.5390625 -0.1484375 0.822344 0.100435
0 0.671875 -0.1953125 0.860246 0.025793
-0.34375 0.5390625 -0.1484375 0.176713 0.101559
-0.3359375 0.6640625 0.0546875 0.140353 0.117994
0 0.828125 0.0703125 0.077626 0.064228
0 0.671875 -0.1953125 0.138658 0.02723
0.296875 0.265625 -0.3125 0.764738 0.086041
0 0.3515625 -0.3828125 0.773234 0.009669
-0.296875 0.265625 -0.3125 0.234137 0.087001
0 0.3515625 -0.3828125 0.225396 0.010837
0.2109375 -0.1640625 -0.390625 0.660621 0.086994
0 -0.1875 -0.4609375 0.645431 0.028106
-0.2109375 -0.1640625 -0.390625 0.338048 0.087561
0 -0.1875 -0.4609375 0.35299 0.028716
0.734375 -0.0703125 -0.046875 0.742764 0.197916
0.8515625 -0.0546875 0.234375 0.765725 0.232421
-0.734375 -0.0703125 -0.046875 0.256408 0.198572
-0.8515625 -0.0546875 0.234375 0.23359 0.233065
0 0.8515625 0.5625 0.987287 0.152728
0.4609375 0.703125 0.4375 0.888944 0.176456
-0.4609375 0.703125 0.4375 0.110522 0.177602
0 0.8515625 0.5625 0.012367 0.154243
0 -0.2890625 0.8984375 0.900013 0.420388
0.453125 -0.234375 0.8515625 0.844154 0.346818
0.453125 0.0703125 0.9296875 0.881002 0.308389
0 0.078125 0.984375 0.959159 0.356531
-0.453125 0.0703125 0.9296875 0.118831 0.309153
-0.453125 -0.234375 0.8515625 0.155683 0.34737
0 -0.2890625 0.8984375 0.100193 0.420886
0 0.078125 0.984375 0.041037 0.357385
0.453125 0.3828125 0.8671875 0.903058 0.260405
0 0.546875 0.8984375 0.99986 0.252255
-0.453125 0.3828125 0.8671875 0.096698 0.261367
0 0.546875 0.8984375 0.00014 0.253531
0.6796875 -0.4921875 0.453125 0.72423 0.339961
0.7265625 -0.3359375 0.40625 0.744163 0.304222
0.6328125 -0.28125 0.453125 0.76565 0.319075
-0.7265625 -0.3359375 0.40625 0.255275 0.304629
-0.6796875 -0.4921875 0.453125 0.275237 0.340212
-0.6328125 -0.28125 0.453125 0.233887 0.319494
0.796875 -0.125 0.5625 0.792936 0.279898
0.640625 -0.0546875 0.703125 0.826311 0.297169
-0.796875 -0.125 0.5625 0.206573 0.280495
-0.640625 -0.0546875 0.703125 0.173337 0.29781
0.796875 0.1171875 0.6171875 0.823141 0.253863
0.640625 0.1953125 0.75 0.854975 0.267153
-0.796875 0.1171875 0.6171875 0.17638 0.254612
-0.640625 0.1953125 0.75 0.144669 0.267956
0.796875 0.359375 0.5390625 0.83533 0.224364
0.640625 0.4453125 0.6796875 0.867888 0.232592
-0.796875 0.359375 0.5390625 0.16414 0.225225
-0.640625 0.4453125 0.6796875 0.131691 0.233525
0.7734375 0.4375 0.265625 0.812814 0.189821
0.6171875 0.5859375 0.328125 0.850667 0.180124
-0.6171875 0.5859375 0.328125 0.148712 0.181145
-0.7734375 0.4375 0.265625 0.186501 0.190705
0.4609375 -0.4296875 0.5234375 0.771964 0.373733
-0.4609375 -0.4296875 0.5234375 0.227737 0.37401
0.484375 -0.5546875 0.5546875 0.744181 0.389903
-0.484375 -0.5546875 0.5546875 0.255481 0.390057
0 -0.5703125 0.5703125 0.824891 0.470849
0 -0.5703125 0.5703125 0.175235 0.470987
0.109375 -0.609375 0.4609375 0.792153 0.46465
0.1953125 -0.6171875 0.6640625 0.742036 0.461609
0.3359375 -0.59375 0.6875 0.726584 0.432597
-0.3359375 -0.59375 0.6875 0.273145 0.432574
-0.1953125 -0.6171875 0.6640625 0.257819 0.461543
-0.109375 -0.609375 0.4609375 0.207859 0.464714
0 -0.6015625 0.40625 0.795638 0.489991
0 -0.6015625 0.40625 0.204362 0.489991
0.859375 0.046875 0.3203125 0.785486 0.227075
-0.859375 0.046875 0.3203125 0.213863 0.227788
0.8203125 0.203125 0.328125 0.802275 0.202593
-0.8203125 0.203125 0.328125 0.19705 0.203415
0.4296875 0.2109375 -0.1953125 0.768354 0.127888
0.40625 -0.1484375 -0.171875 0.690398 0.146106
-0.4296875 0.2109375 -0.1953125 0.230666 0.128771
-0.40625 -0.1484375 -0.171875 0.308516 0.146686
0.59375 0.1640625 -0.125 0.779285 0.16855
-0.59375 0.1640625 -0.125 0.219887 0.169386
0.640625 0.4296875 -0.0078125 0.80302 0.170278
0.484375 0.546875 0.0234375 0.830115 0.138457
-0.484375 0.546875 0.0234375 0.169083 0.139518
-0.640625 0.4296875 -0.0078125 0.196211 0.171181
1.0234375 0.3125 0.4765625 0.560056 0.957116
0.890625 0.234375 0.40625 0.44994 0.959188
0.921875 0.21875 0.359375 0.462753 0.891851
1.015625 0.2890625 0.4140625 0.530867 0.884581
-0.921875 0.21875 0.359375 0.272722 0.891853
-0.890625 0.234375 0.40625 0.285528 0.959188
-1.0234375 0.3125 0.4765625 0.175421 0.957118
-1.015625 0.2890625 0.4140625 0.20461 0.884582
1.1875 0.390625 0.4375 0.590562 0.846978
1.234375 0.421875 0.5078125 0.701323 0.89707
-1.1875 0.390625 0.4375 0.144915 0.846977
-1.234375 0.421875 0.5078125 0.034155 0.897069
1.265625 0.40625 0.2890625 0.590787 0.784411
1.3515625 0.421875 0.3203125 0.669298 0.757013
-1.265625 0.40625 0.2890625 0.144687 0.78441
-1.3515625 0.421875 0.3203125 0.06617 0.757009
1.2109375 0.40625 0.078125 0.560262 0.744213
1.28125 0.4296875 0.0546875 0.603293 0.719157
-1.2109375 0.40625 0.078125 0.175212 0.744211
-1.28125 0.4296875 0.0546875 0.132179 0.719155
1.03125 0.3046875 -0.0390625 0.520423 0.712528
1.0390625 0.328125 -0.1015625 0.554154 0.682132
-1.03125 0.3046875 -0.0390625 0.215052 0.712528
-1.0390625 0.328125 -0.1015625 0.181319 0.682131
0.828125 0.1328125 -0.0703125 0.468433 0.686792
0.7734375 0.125 -0.140625 0.493965 0.641024
-0.828125 0.1328125 -0.0703125 0.267042 0.686791
-0.7734375 0.125 -0.140625 0.241508 0.641024
1.0390625 0.3671875 0 0.498843 0.736977
0.8828125 0.2109375 -0.0234375 0.464308 0.719593
-0.8828125 0.2109375 -0.0234375 0.271168 0.719592
-1.0390625 0.3671875 0 0.236633 0.736977
1.1875 0.4453125 0.09375 0.526545 0.760754
-1.1875 0.4453125 0.09375 0.208931 0.760754
1.234375 0.4453125 0.25 0.543027 0.789442
-1.234375 0.4453125 0.25 0.192449 0.789442
1.171875 0.4375 0.359375 0.539269 0.821849
-1.171875 0.4375 0.359375 0.196208 0.821849
1.0234375 0.359375 0.34375 0.510099 0.84238
-1.0234375 0.359375 0.34375 0.225378 0.84238
0.9453125 0.2890625 0.3046875 0.470621 0.84532
-0.9453125 0.2890625 0.3046875 0.264856 0.845322
0.71875 0.171875 -0.0234375 0.78537 0.1803
0.7265625 0.0703125 0 0.76942 0.190471
-0.71875 0.171875 -0.0234375 0.21385 0.181127
-0.7265625 0.0703125 0 0.229792 0.191225
0.59375 0.1640625 -0.125 0.393578 0.587505
0.71875 0.171875 -0.0234375 0.395036 0.674023
-0.59375 0.1640625 -0.125 0.341892 0.587509
-0.71875 0.171875 -0.0234375 0.340437 0.674021
0.8203125 0.203125 0.328125 0.385726 0.910555
0.84375 0.2109375 0.2890625 0.399584 0.878316
-0.84375 0.2109375 0.2890625 0.335895 0.87832
-0.8203125 0.203125 0.328125 0.349744 0.910558
0.8125 0.2734375 -0.015625 0.429058 0.713731
-0.8125 0.2734375 -0.015625 0.306418 0.713731
0.84375 0.2734375 0.015625 0.415153 0.728622
0.71875 0.1875 0.0390625 0.37824 0.710772
-0.71875 0.1875 0.0390625 0.357237 0.710776
-0.84375 0.2734375 0.015625 0.320324 0.728623
0.7578125 0.2734375 0.09375 0.408407 0.754607
0.8203125 0.2734375 0.0859375 0.418068 0.746526
-0.7578125 0.2734375 0.09375 0.32707 0.75461
-0.8203125 0.2734375 0.0859375 0.317409 0.746528
0.8359375 0.2734375 0.171875 0.413147 0.796172
0.796875 0.2109375 0.203125 0.377006 0.815186
-0.796875 0.2109375 0.203125 0.358471 0.815189
-0.8359375 0.2734375 0.171875 0.32233 0.796174
0.890625 0.265625 0.2421875 0.433705 0.830975
-0.890625 0.265625 0.2421875 0.301772 0.830977
0.796875 0.2109375 0.203125 0.797 0.194826
0.84375 0.2109375 0.2890625 0.801893 0.198928
-0.84375 0.2109375 0.2890625 0.19742 0.199758
-0.796875 0.2109375 0.203125 0.20229 0.195652
0.71875 0.1875 0.0390625 0.788848 0.183842
-0.71875 0.1875 0.0390625 0.210391 0.184671
0.890625 0.3203125 0.234375 0.451471 0.80409
0.953125 0.34375 0.2890625 0.475926 0.816075
-0.890625 0.3203125 0.234375 0.284007 0.804092
-0.953125 0.34375 0.2890625 0.259551 0.816076
0.84375 0.3203125 0.171875 0.43347 0.78392
-0.84375 0.3203125 0.171875 0.302007 0.783922
0.765625 0.3203125 0.09375 0.424174 0.764959
-0.765625 0.3203125 0.09375 0.311304 0.764961
0.828125 0.3203125 0.078125 0.430644 0.75635
-0.828125 0.3203125 0.078125 0.304833 0.756352
0.8515625 0.3203125 0.015625 0.435247 0.743457
-0.8515625 0.3203125 0.015625 0.30023 0.743459
0.8125 0.3203125 -0.015625 0.441735 0.732686
-0.8125 0.3203125 -0.015625 0.293742 0.732687
0.8828125 0.265625 -0.015625 0.460899 0.740871
-0.8828125 0.265625 -0.015625 0.274578 0.740871
1.0390625 0.4140625 0.328125 0.499639 0.817768
-1.0390625 0.4140625 0.328125 0.235838 0.817769
1.1875 0.484375 0.34375 0.513389 0.808597
-1.1875 0.484375 0.34375 0.222088 0.808598
1.2578125 0.4921875 0.2421875 0.515507 0.790754
-1.2578125 0.4921875 0.2421875 0.21997 0.790754
1.2109375 0.484375 0.0859375 0.504048 0.772385
-1.2109375 0.484375 0.0859375 0.231428 0.772385
1.046875 0.421875 0 0.484096 0.755033
-1.046875 0.421875 0 0.25138 0.755033
0.9375 0.3359375 0.0625 0.453457 0.756171
0.890625 0.328125 0.109375 0.445088 0.770458
-0.9375 0.3359375 0.0625 0.28202 0.756172
-0.890625 0.328125 0.109375 0.290389 0.77046
1 0.3671875 0.125 0.472595 0.769899
0.9609375 0.3515625 0.171875 0.462782 0.785392
-1 0.3671875 0.125 0.262882 0.769899
-0.9609375 0.3515625 0.171875 0.272695 0.785393
1.0546875 0.3828125 0.1875 0.490045 0.782999
1.015625 0.375 0.234375 0.481973 0.797121
-1.0546875 0.3828125 0.1875 0.245432 0.782999
-1.015625 0.375 0.234375 0.253504 0.797122
1.109375 0.390625 0.2109375 0.501565 0.792591
1.0859375 0.390625 0.2734375 0.499142 0.804019
-1.109375 0.390625 0.2109375 0.233912 0.792591
-1.0859375 0.390625 0.2734375 0.236336 0.80402
0.7890625 0.328125 -0.125 0.559696 0.607669
1.0390625 0.4921875 -0.0859375 0.598936 0.655817
-0.7890625 0.328125 -0.125 0.175778 0.607667
-1.0390625 0.4921875 -0.0859375 0.136537 0.655816
1.3125 0.53125 0.0546875 0.629457 0.693271
-1.3125 0.53125 0.0546875 0.106015 0.693269
1.3671875 0.5 0.296875 0.653588 0.712098
-1.3671875 0.5 0.296875 0.081883 0.712096
1.234375 0.421875 0.5078125 0.712556 0.698473
1.25 0.546875 0.46875 0.66201 0.68601
-1.234375 0.421875 0.5078125 0.022915 0.698478
-1.25 0.546875 0.46875 0.073462 0.68601
1.0234375 0.3125 0.4765625 0.715231 0.624373
1.0234375 0.484375 0.4375 0.652439 0.640199
-1.0234375 0.3125 0.4765625 0.020244 0.624367
-1.0234375 0.484375 0.4375 0.083034 0.640197
0.890625 0.234375 0.40625 0.70672 0.572934
0.859375 0.3828125 0.3828125 0.633578 0.594596
-0.890625 0.234375 0.40625 0.028756 0.572934
-0.859375 0.3828125 0.3828125 0.101895 0.594596
0.7734375 0.4375 0.265625 0.615458 0.557583
0.8203125 0.203125 0.328125 0.703133 0.53814
-0.8203125 0.203125 0.328125 0.032336 0.538145
-0.7734375 0.4375 0.265625 0.120011 0.557584
0.640625 0.4296875 -0.0078125 0.512305 0.539237
-0.640625 0.4296875 -0.0078125 0.223171 0.539233
4 0 1 2 3
4 4 5 6 7
4 3 2 8 9
4 10 4 7 11
4 2 12 13 8
4 14 15 4 10
4 1 16 12 2
4 15 17 5 4
4 16 18 19 12
4 20 21 17 15
4 12 19 22 13
4 23 20 15 14
4 19 24 25 22
4 26 27 20 23
4 18 28 24 19
4 27 29 21 20
4 28 30 31 24
4 32 33 29 27
4 24 31 34 25
4 35 32 27 26
4 31 36 37 34
4 38 39 32 35
4 30 40 36 31
4 39 41 33 32
4 40 42 43 36
4 44 45 41 39
4 36 43 46 37
4 47 44 39 38
4 43 3 9 46
4 11 7 44 47
4 42 0 3 43
4 7 6 45 44
4 0 42 48 49
4 50 45 6 51
4 42 40 52 48
4 53 41 45 50
4 40 30 54 52
4 55 33 41 53
4 30 28 56 54
4 57 29 33 55
4 28 18 58 56
4 59 21 29 57
4 18 16 60 58
4 61 17 21 59
4 16 1 62 60
4 63 5 17 61
4 1 0 49 62
4 51 6 5 63
3 64 62 49
3 51 63 65
3 60 62 64
3 65 63 61
3 64 58 60
3 61 59 65
3 64 56 58
3 59 57 65
3 64 54 56
3 57 55 65
3 64 52 54
3 55 53 65
3 64 48 52
3 53 50 65
3 64 49 48
3 50 51 65
4 66 67 68 69
4 68 70 71 69
4 72 73 67 66
4 70 74 75 71
4 76 77 73 72
4 74 78 79 75
4 80 81 77 76
4 78 82 83 79
4 84 85 81 80
4 82 86 87 83
4 88 89 90 91
4 92 93 94 95
4 89 96 97 90
4 98 99 93 92
4 96 100 101 97
4 102 103 99 98
4 100 104 105 101
4 106 107 103 102
4 104 108 109 105
4 110 111 107 106
4 108 112 113 109
4 114 115 111 110
4 112 116 117 113
4 118 119 115 114
4 116 120 121 117
4 122 123 119 118
4 120 124 125 121
4 126 127 123 122
4 124 128 129 125
4 129 128 127 126
4 130 131 121 125
4 122 132 133 126
4 131 134 117 121
4 118 135 132 122
4 136 113 117 134
4 118 114 137 135
4 138 109 113 136
4 114 110 139 137
4 140 105 109 138
4 110 106 141 139
4 142 101 105 140
4 106 102 143 141
4 144 97 101 142
4 102 98 145 143
4 146 90 97 144
4 98 92 147 145
4 148 91 90 146
4 92 95 149 147
4 148 150 151 91
4 151 152 149 95
4 130 125 129 153
4 129 126 133 154
4 153 129 155 156
4 155 129 154 157
4 151 150 156 155
4 157 152 151 155
4 158 159 68 67
4 68 159 160 70
4 161 158 67 73
4 70 160 162 74
4 163 161 73 77
4 74 162 164 78
4 85 165 166 81
4 167 168 86 82
4 163 77 81 166
4 82 78 164 167
4 169 170 171 165
4 171 170 172 168
4 166 165 171 173
4 171 168 167 173
4 174 163 166 173
4 167 164 174 173
4 175 176 177 169
4 178 179 180 172
4 181 182 176 175
4 179 183 184 180
4 185 186 182 181
4 183 187 185 184
4 188 189 186 185
4 187 189 188 185
4 170 169 177 190
4 178 172 170 190
4 190 177 191 192
4 193 178 190 192
4 189 194 195 186
4 196 194 189 187
4 186 195 197 182
4 198 196 187 183
4 182 197 199 176
4 200 198 183 179
4 176 199 191 177
4 193 200 179 178
4 194 199 197 195
4 198 200 194 196
4 194 192 191 199
4 193 192 194 200
4 185 181 91 151
4 95 184 185 151
4 181 175 201 91
4 202 180 184 95
4 175 169 203 201
4 204 172 180 202
4 169 165 85 203
4 86 168 172 204
4 84 205 203 85
4 204 206 87 86
4 205 207 201 203
4 202 208 206 204
4 88 91 201 207
4 202 95 94 208
4 163 174 209 210
4 209 174 164 211
4 161 163 210 212
4 211 164 162 213
4 158 161 212 214
4 213 162 160 215
4 159 158 214 216
4 215 160 159 216
4 216 214 217 218
4 219 215 216 218
4 214 212 220 217
4 221 213 215 219
4 212 210 222 220
4 223 211 213 221
4 210 209 224 222
4 224 209 211 223
4 224 218 217 222
4 219 218 224 223
3 222 217 220
3 221 219 223
4 156 150 225 226
4 227 152 157 228
4 153 156 226 229
4 228 157 154 230
4 130 153 229 231
4 230 154 133 232
4 150 148 233 225
4 234 149 152 227
4 148 146 235 233
4 236 147 149 234
4 146 144 237 235
4 238 145 147 236
4 144 142 239 237
4 240 143 145 238
4 142 140 241 239
4 242 141 143 240
4 140 138 243 241
4 244 139 141 242
4 138 136 245 243
4 246 137 139 244
4 136 134 247 245
4 248 135 137 246
4 134 131 249 247
4 250 132 135 248
4 131 130 231 249
4 232 133 132 250
4 249 231 251 252
4 253 232 250 254
4 247 249 252 255
4 254 250 248 256
4 245 247 255 257
4 256 248 246 258
4 243 245 257 259
4 258 246 244 260
4 241 243 259 261
4 260 244 242 262
4 239 241 261 263
4 262 242 240 264
4 237 239 263 265
4 264 240 238 266
4 235 237 265 267
4 266 238 236 268
4 233 235 267 269
4 268 236 234 270
4 225 233 269 271
4 270 234 227 272
4 231 229 273 251
4 274 230 232 253
4 229 226 275 273
4 276 228 230 274
4 226 225 271 275
4 272 227 228 276
4 128 124 277 278
4 279 127 128 278
4 124 120 280 277
4 281 123 127 279
4 120 116 282 280
4 283 119 123 281
4 116 112 284 282
4 285 115 119 283
4 112 108 286 284
4 287 111 115 285
4 108 104 288 286
4 289 107 111 287
4 104 100 290 288
4 291 103 107 289
4 100 96 292 290
4 293 99 103 291
4 96 89 294 292
4 295 93 99 293
4 296 297 298 299
4 300 301 302 303
4 304 296 299 305
4 303 302 306 307
4 308 304 305 309
4 307 306 308 310
4 66 69 308 309
4 308 69 71 310
4 72 66 309 311
4 310 71 75 312
4 76 72 311 313
4 312 75 79 314
4 80 76 313 315
4 314 79 83 316
4 313 305 299 315
4 303 307 314 316
4 313 311 309 305
4 310 312 314 307
4 317 315 299 298
4 303 316 318 300
4 84 80 315 317
4 316 83 87 318
4 205 319 320 207
4 321 322 206 208
4 84 317 319 205
4 322 318 87 206
4 88 207 320 323
4 321 208 94 324
4 88 323 294 89
4 295 324 94 93
4 325 326 327 328
4 329 330 331 332
4 328 327 333 334
4 335 329 332 336
4 334 333 337 338
4 339 335 336 340
4 338 337 298 297
4 300 339 340 301
4 317 298 337 319
4 339 300 318 322
4 290 292 341 342
4 343 293 291 344
4 345 346 326 325
4 330 347 348 331
4 349 350 351 352
4 353 354 355 356
4 352 351 357 358
4 359 353 356 360
4 358 357 346 345
4 347 359 360 348
4 361 288 362 363
4 364 289 365 366
4 363 362 367 368
4 369 364 366 370
4 368 367 371 372
4 373 369 370 374
4 372 371 375 376
4 377 373 374 378
4 379 380 376 375
4 378 381 382 377
4 346 357 376 380
4 378 359 347 381
4 357 351 372 376
4 374 353 359 378
4 351 350 368 372
4 370 354 353 374
4 350 383 363 368
4 366 384 354 370
4 385 361 363 383
4 366 365 386 384
4 387 383 350 349
4 354 384 388 355
4 389 390 391 385
4 392 393 394 386
4 389 385 383 387
4 384 386 394 388
3 395 389 387
3 388 394 396
4 288 290 342 362
4 344 291 289 364
4 342 397 367 362
4 369 398 344 364
4 397 399 371 367
4 373 400 398 369
4 379 375 371 399
4 373 377 382 400
4 337 333 401 402
4 403 335 339 404
4 341 402 401 405
4 403 404 343 406
4 292 294 402 341
4 404 295 293 343
4 294 320 319 402
4 322 321 295 404
3 319 337 402
3 404 339 322
3 294 323 320
3 321 324 295
4 379 407 408 380
4 409 410 382 381
4 346 380 408 326
4 409 381 347 330
4 405 401 408 407
4 409 403 406 410
4 333 327 408 401
4 409 329 335 403
3 326 408 327
3 329 409 330
4 411 412 413 414
4 415 416 417 418
4 411 414 419 420
4 421 418 417 422
4 420 419 423 424
4 425 421 422 426
4 424 423 427 428
4 429 425 426 430
4 428 427 431 432
4 433 429 430 434
4 432 431 435 436
4 437 433 434 438
4 431 439 440 435
4 441 442 433 437
4 427 443 439 431
4 442 444 429 433
4 423 445 443 427
4 444 446 425 429
4 419 447 445 423
4 446 448 421 425
4 414 449 447 419
4 448 450 418 421
4 414 413 451 449
4 452 415 418 450
4 341 405 453 454
4 455 406 343 456
4 457 436 435 458
4 437 438 459 460
4 342 341 454 397
4 456 343 344 398
4 461 462 413 412
4 415 463 464 416
4 435 440 465 458
4 466 441 437 460
4 467 468 458 465
4 460 469 470 466
4 471 468 467 472
4 470 469 473 474
4 475 476 468 471
4 469 477 478 473
4 462 476 475 479
4 478 477 463 480
4 413 462 479 451
4 480 463 415 452
4 397 481 482 399
4 483 484 398 400
4 397 454 485 481
4 486 456 398 484
3 454 453 485
3 486 455 456
4 451 479 487 488
4 489 480 452 490
4 479 475 491 487
4 492 478 480 489
4 475 471 493 491
4 494 473 478 492
4 471 472 495 493
4 496 474 473 494
4 472 467 497 495
4 498 470 474 496
4 467 465 499 497
4 500 466 470 498
4 465 440 501 499
4 502 441 466 500
4 449 451 488 503
4 490 452 450 504
4 447 449 503 505
4 504 450 448 506
4 445 447 505 507
4 506 448 446 508
4 443 445 507 509
4 508 446 444 510
4 439 443 509 511
4 510 444 442 512
4 440 439 511 501
4 512 442 441 502
4 495 497 513 514
4 515 498 496 516
4 514 513 517 518
4 519 515 516 520
4 518 517 521 522
4 523 519 520 524
4 522 521 525 526
4 527 523 524 528
4 503 488 522 526
4 524 490 504 528
4 487 518 522 488
4 524 520 489 490
4 487 491 514 518
4 516 492 489 520
4 495 514 491 493
4 492 516 496 494
4 499 501 513 497
4 515 502 500 498
4 511 517 513 501
4 515 519 512 502
4 509 521 517 511
4 519 523 510 512
4 507 525 521 509
4 523 527 508 510
4 505 526 525 507
4 527 528 506 508
3 503 526 505
3 506 528 504
4 432 436 529 530
4 531 438 434 532
4 428 432 530 533
4 532 434 430 534
4 424 428 533 535
4 534 430 426 536
4 537 424 535 538
4 536 426 539 540
4 541 537 538 542
4 540 539 543 544
4 545 541 542 546
4 544 543 547 548
4 542 530 529 546
4 531 532 544 548
4 542 538 533 530
4 534 540 544 532
3 538 535 533
3 534 536 540
4 549 550 545 546
4 547 551 552 548
4 549 546 529 553
4 531 548 552 554
4 457 553 529 436
4 531 554 459 438
